<svg id="svg" version="1.1" width="390" height="120" xmlns="http://www.w3.org/2000/svg" xmlns:xlink="http://www.w3.org/1999/xlink" style="display: block;"><g id="svgg"><path id="path0" d="M38.131 15.962 C 35.655 17.106,36.963 14.300,24.594 45.000 C 16.786 64.378,17.039 63.577,17.017 69.000 C 16.930 91.153,42.979 101.938,58.600 86.216 C 74.038 70.678,62.583 44.093,40.785 44.872 C 37.589 44.986,37.230 44.929,37.421 44.331 C 37.538 43.962,39.537 39.012,41.863 33.331 C 46.490 22.029,46.910 20.212,45.375 18.155 C 43.392 15.496,40.821 14.718,38.131 15.962 M74.765 15.582 C 67.666 17.734,68.993 28.154,76.367 28.154 C 83.258 28.154,85.369 19.210,79.212 16.100 C 77.351 15.160,76.490 15.060,74.765 15.582 M210.000 38.800 L 210.000 46.400 205.600 46.400 L 201.200 46.400 201.200 47.800 L 201.200 49.200 205.600 49.200 L 210.000 49.200 210.000 70.800 L 210.000 92.400 211.400 92.400 L 212.800 92.400 212.800 70.800 L 212.800 49.200 217.200 49.200 L 221.600 49.200 221.600 47.800 L 221.600 46.400 217.200 46.400 L 212.800 46.400 212.800 38.800 L 212.800 31.200 211.400 31.200 L 210.000 31.200 210.000 38.800 M282.800 61.800 L 282.800 92.400 284.200 92.400 L 285.600 92.400 285.600 61.800 L 285.600 31.200 284.200 31.200 L 282.800 31.200 282.800 61.800 M372.800 38.800 L 372.800 46.400 368.400 46.400 L 364.000 46.400 364.000 47.800 L 364.000 49.200 368.400 49.200 L 372.800 49.200 372.800 70.800 L 372.800 92.400 374.200 92.400 L 375.600 92.400 375.600 70.800 L 375.600 49.200 380.000 49.200 L 384.400 49.200 384.400 47.800 L 384.400 46.400 380.000 46.400 L 375.600 46.400 375.600 38.800 L 375.600 31.200 374.200 31.200 L 372.800 31.200 372.800 38.800 M73.196 45.700 C 70.010 47.868,70.200 46.378,70.200 69.200 C 70.200 89.121,70.217 89.564,71.025 90.646 C 73.986 94.612,79.114 94.498,81.900 90.404 L 82.800 89.082 82.800 69.295 C 82.800 49.883,82.784 49.480,81.953 48.002 C 80.251 44.973,75.932 43.838,73.196 45.700 M115.739 45.213 C 87.487 50.275,91.121 93.356,119.800 93.356 C 129.601 93.356,139.482 86.657,141.419 78.700 C 142.011 76.269,139.212 77.197,137.800 79.899 C 127.964 98.729,100.209 92.088,98.934 70.600 C 97.564 47.516,127.280 37.970,137.806 58.113 C 139.201 60.782,142.635 61.886,141.500 59.300 C 136.977 48.999,126.521 43.281,115.739 45.213 M341.786 45.588 C 336.592 47.284,333.833 51.173,333.832 56.800 C 333.830 62.647,335.866 65.092,343.356 68.240 C 355.192 73.215,357.582 75.358,357.582 81.000 C 357.582 94.459,336.317 93.787,334.924 80.284 L 334.688 78.000 333.098 78.000 L 331.508 78.000 331.794 80.300 C 333.955 97.673,360.761 98.320,360.787 81.000 C 360.798 74.173,357.807 71.056,346.942 66.568 C 337.870 62.821,336.143 60.800,336.954 54.882 C 338.237 45.524,354.113 44.826,356.668 54.016 C 357.314 56.339,357.366 56.400,358.711 56.400 L 360.091 56.400 359.808 54.512 C 358.666 46.900,350.362 42.788,341.786 45.588 M166.029 45.836 C 146.607 51.058,142.373 78.101,159.206 89.414 C 170.175 96.786,183.390 94.054,191.936 82.646 L 192.800 81.492 192.800 86.946 L 192.800 92.400 194.200 92.400 L 195.600 92.400 195.600 69.400 L 195.600 46.400 194.200 46.400 L 192.800 46.400 192.800 51.895 L 192.800 57.389 191.455 55.395 C 185.869 47.110,175.621 43.257,166.029 45.836 M242.000 45.833 C 224.295 50.504,218.579 73.461,231.834 86.663 C 242.338 97.125,258.921 95.258,267.921 82.600 L 268.775 81.400 268.787 86.900 L 268.800 92.400 270.200 92.400 L 271.600 92.400 271.600 69.400 L 271.600 46.400 270.211 46.400 L 268.823 46.400 268.711 51.852 L 268.600 57.304 267.303 55.301 C 262.118 47.292,251.511 43.324,242.000 45.833 M291.297 46.900 C 291.397 47.175,295.313 57.429,299.998 69.686 L 308.518 91.972 306.082 98.086 C 304.742 101.449,303.359 104.886,303.008 105.724 L 302.369 107.247 304.023 107.124 C 305.616 107.005,305.710 106.919,306.591 104.800 C 308.135 101.086,328.806 50.415,329.622 48.344 L 330.388 46.400 328.652 46.400 L 326.915 46.400 318.611 67.220 C 314.044 78.672,310.262 87.987,310.206 87.920 C 310.151 87.854,306.543 78.485,302.191 67.100 L 294.276 46.400 292.695 46.400 C 291.600 46.400,291.170 46.554,291.297 46.900 M177.800 48.238 C 192.861 52.520,197.718 73.311,186.361 84.891 C 169.832 101.745,143.688 81.290,153.781 59.400 C 158.101 50.032,167.973 45.445,177.800 48.238 M253.600 48.256 C 268.779 52.486,273.667 73.505,262.158 85.049 C 248.658 98.590,226.794 87.776,227.697 68.005 C 228.345 53.800,240.430 44.586,253.600 48.256 M44.400 55.785 C 44.400 57.128,47.435 58.603,48.431 57.744 C 49.870 56.505,54.257 60.611,52.991 62.010 C 52.052 63.047,53.012 65.672,54.453 66.013 C 55.873 66.348,55.920 72.037,54.506 72.382 C 53.260 72.686,51.880 75.402,52.648 76.040 C 53.586 76.818,53.269 77.766,51.485 79.517 C 49.584 81.383,49.354 81.464,48.404 80.604 C 47.375 79.672,44.489 80.908,44.322 82.352 C 44.131 83.991,38.669 83.991,38.478 82.352 C 38.311 80.908,35.425 79.672,34.396 80.604 C 33.416 81.491,33.148 81.381,31.008 79.208 L 29.046 77.216 29.953 76.250 C 30.480 75.689,30.693 75.181,30.461 75.038 C 30.241 74.902,29.946 74.263,29.804 73.619 C 29.594 72.661,29.314 72.424,28.273 72.323 L 27.000 72.200 27.000 69.204 C 27.000 66.221,27.005 66.207,28.146 66.004 C 29.807 65.708,30.841 63.151,29.776 61.973 C 28.504 60.568,32.924 56.499,34.369 57.744 C 35.365 58.603,38.400 57.128,38.400 55.785 C 38.400 54.826,38.479 54.800,41.400 54.800 C 44.321 54.800,44.400 54.826,44.400 55.785 " stroke="none" fill="#ffffff" fill-rule="evenodd"></path><path id="path1" d="M0.000 59.200 L 0.000 118.400 200.000 118.400 L 400.000 118.400 400.000 59.200 L 400.000 0.000 200.000 0.000 L 0.000 0.000 0.000 59.200 M43.575 16.345 C 47.285 19.023,47.143 20.434,41.863 33.331 C 39.537 39.012,37.538 43.962,37.421 44.331 C 37.230 44.929,37.589 44.986,40.785 44.872 C 62.583 44.093,74.038 70.678,58.600 86.216 C 42.979 101.938,16.930 91.153,17.017 69.000 C 17.040 63.293,16.506 64.790,33.072 24.000 C 36.549 15.439,39.420 13.347,43.575 16.345 M79.212 16.100 C 85.369 19.210,83.258 28.154,76.367 28.154 C 74.995 28.154,74.037 27.866,72.898 27.113 C 66.279 22.732,72.132 12.523,79.212 16.100 M212.800 38.800 L 212.800 46.400 217.200 46.400 L 221.600 46.400 221.600 47.800 L 221.600 49.200 217.200 49.200 L 212.800 49.200 212.800 70.800 L 212.800 92.400 211.400 92.400 L 210.000 92.400 210.000 70.800 L 210.000 49.200 205.600 49.200 L 201.200 49.200 201.200 47.800 L 201.200 46.400 205.600 46.400 L 210.000 46.400 210.000 38.800 L 210.000 31.200 211.400 31.200 L 212.800 31.200 212.800 38.800 M285.600 61.800 L 285.600 92.400 284.200 92.400 L 282.800 92.400 282.800 61.800 L 282.800 31.200 284.200 31.200 L 285.600 31.200 285.600 61.800 M375.600 38.800 L 375.600 46.400 380.000 46.400 L 384.400 46.400 384.400 47.800 L 384.400 49.200 380.000 49.200 L 375.600 49.200 375.600 70.800 L 375.600 92.400 374.200 92.400 L 372.800 92.400 372.800 70.800 L 372.800 49.200 368.400 49.200 L 364.000 49.200 364.000 47.800 L 364.000 46.400 368.400 46.400 L 372.800 46.400 372.800 38.800 L 372.800 31.200 374.200 31.200 L 375.600 31.200 375.600 38.800 M79.598 45.647 C 82.874 47.488,82.800 46.939,82.800 69.295 L 82.800 89.082 81.900 90.404 C 79.114 94.498,73.986 94.612,71.025 90.646 C 69.723 88.903,69.734 49.487,71.037 47.729 C 73.200 44.810,76.626 43.977,79.598 45.647 M126.868 45.846 C 133.123 47.672,138.610 52.718,141.500 59.300 C 142.635 61.886,139.201 60.782,137.806 58.113 C 127.280 37.970,97.564 47.516,98.934 70.600 C 100.209 92.088,127.964 98.729,137.800 79.899 C 139.212 77.197,142.011 76.269,141.419 78.700 C 137.823 93.473,115.084 98.361,103.562 86.838 C 85.630 68.904,102.743 38.804,126.868 45.846 M353.400 45.946 C 356.945 47.536,359.217 50.573,359.808 54.512 L 360.091 56.400 358.711 56.400 C 357.366 56.400,357.314 56.339,356.668 54.016 C 354.113 44.826,338.237 45.524,336.954 54.882 C 336.143 60.800,337.870 62.821,346.942 66.568 C 357.807 71.056,360.798 74.173,360.787 81.000 C 360.777 87.463,357.178 91.613,350.344 93.039 C 340.482 95.098,332.995 89.956,331.794 80.300 L 331.508 78.000 333.098 78.000 L 334.688 78.000 334.924 80.284 C 336.317 93.787,357.582 94.459,357.582 81.000 C 357.582 75.358,355.192 73.215,343.356 68.240 C 335.866 65.092,333.830 62.647,333.832 56.800 C 333.834 47.508,344.138 41.793,353.400 45.946 M179.479 46.190 C 184.286 47.716,188.420 50.894,191.455 55.395 L 192.800 57.389 192.800 51.895 L 192.800 46.400 194.200 46.400 L 195.600 46.400 195.600 69.400 L 195.600 92.400 194.200 92.400 L 192.800 92.400 192.800 86.946 L 192.800 81.492 191.936 82.646 C 177.224 102.285,148.800 93.342,148.800 69.074 C 148.800 52.552,163.941 41.259,179.479 46.190 M254.148 45.803 C 259.323 47.151,264.399 50.816,267.303 55.301 L 268.600 57.304 268.711 51.852 L 268.823 46.400 270.211 46.400 L 271.600 46.400 271.600 69.400 L 271.600 92.400 270.200 92.400 L 268.800 92.400 268.787 86.900 L 268.775 81.400 267.921 82.600 C 253.925 102.283,224.808 93.268,224.644 69.200 C 224.535 53.285,238.959 41.847,254.148 45.803 M302.191 67.100 C 306.543 78.485,310.151 87.854,310.206 87.920 C 310.262 87.987,314.044 78.672,318.611 67.220 L 326.915 46.400 328.652 46.400 L 330.388 46.400 329.622 48.344 C 328.806 50.415,308.135 101.086,306.591 104.800 C 305.710 106.919,305.616 107.005,304.023 107.124 L 302.369 107.247 303.008 105.724 C 303.359 104.886,304.742 101.449,306.082 98.086 L 308.518 91.972 299.998 69.686 C 295.313 57.429,291.397 47.175,291.297 46.900 C 291.170 46.554,291.600 46.400,292.695 46.400 L 294.276 46.400 302.191 67.100 M168.939 47.624 C 152.062 50.555,145.633 72.501,158.020 84.900 C 175.279 102.177,201.483 80.214,189.862 58.211 C 185.914 50.736,176.998 46.225,168.939 47.624 M244.939 47.621 C 225.025 51.107,221.046 79.665,239.207 88.755 C 257.673 97.998,275.668 77.309,265.707 58.286 C 261.738 50.705,252.989 46.212,244.939 47.621 M38.400 55.785 C 38.400 57.128,35.365 58.603,34.369 57.744 C 32.924 56.499,28.504 60.568,29.776 61.973 C 30.841 63.151,29.807 65.708,28.146 66.004 C 27.005 66.207,27.000 66.221,27.000 69.204 L 27.000 72.200 28.273 72.323 C 29.314 72.424,29.594 72.661,29.804 73.619 C 29.946 74.263,30.241 74.902,30.461 75.038 C 30.693 75.181,30.480 75.689,29.953 76.250 L 29.046 77.216 31.008 79.208 C 33.148 81.381,33.416 81.491,34.396 80.604 C 35.425 79.672,38.311 80.908,38.478 82.352 C 38.669 83.991,44.131 83.991,44.322 82.352 C 44.489 80.908,47.375 79.672,48.404 80.604 C 49.354 81.464,49.584 81.383,51.485 79.517 C 53.269 77.766,53.586 76.818,52.648 76.040 C 51.880 75.402,53.260 72.686,54.506 72.382 C 55.920 72.037,55.873 66.348,54.453 66.013 C 53.012 65.672,52.052 63.047,52.991 62.010 C 54.257 60.611,49.870 56.505,48.431 57.744 C 47.435 58.603,44.400 57.128,44.400 55.785 C 44.400 54.826,44.321 54.800,41.400 54.800 C 38.479 54.800,38.400 54.826,38.400 55.785 " stroke="none" fill="transparent" fill-rule="evenodd"></path></g></svg>